<svg width="22" height="19" viewBox="0 0 22 19" fill="none" xmlns="http://www.w3.org/2000/svg">
<path d="M21.8602 9.13021C21.6636 8.89802 16.9808 3.44482 10.9999 3.44482C5.01902 3.44482 0.33593 8.89802 0.139606 9.12999C-0.0465352 9.35027 -0.0465352 9.64904 0.139606 9.86932C0.33593 10.1015 5.01902 15.5547 10.9999 15.5547C16.9808 15.5547 21.6636 10.1015 21.8602 9.86951C22.0466 9.64927 22.0466 9.35027 21.8602 9.13021ZM10.9999 14.302C6.59434 14.302 2.77867 10.6826 1.64914 9.49934C2.7772 8.31507 6.58489 4.69757 10.9999 4.69757C15.4052 4.69757 19.2206 8.31633 20.3506 9.5002C19.2226 10.6844 15.4149 14.302 10.9999 14.302Z" fill="#8E8E8E"/>
<path d="M10.9999 5.7417C8.6004 5.7417 6.64819 7.42769 6.64819 9.49996C6.64819 11.5722 8.6004 13.2582 10.9999 13.2582C13.3993 13.2582 15.3515 11.5722 15.3515 9.49996C15.3515 7.42769 13.3993 5.7417 10.9999 5.7417ZM10.9999 12.0054C9.40013 12.0054 8.09878 10.8815 8.09878 9.49996C8.09878 8.11841 9.40018 6.99448 10.9999 6.99448C12.5995 6.99448 13.9009 8.11841 13.9009 9.49996C13.9009 10.8815 12.5996 12.0054 10.9999 12.0054Z" fill="#8E8E8E"/>
</svg>
